<?xml version="1.0" encoding="utf-8"?>
<!-- Generator: Adobe Illustrator 19.2.1, SVG Export Plug-In . SVG Version: 6.00 Build 0)  -->
<svg version="1.1" id="Слой_1" xmlns="http://www.w3.org/2000/svg" xmlns:xlink="http://www.w3.org/1999/xlink" x="0px" y="0px"
	 viewBox="0 0 3885 1000" style="enable-background:new 0 0 3885 1000;" xml:space="preserve">
<g id="Shape_1" fill="#FFFFFF">
	<g>
		<path d="M820.3,485.9c-49.6-11.5-65-20.1-73-37c-7.5-15.7-2.2-38.5,10.9-47.8c11.4-8.1,20-15.5,53.3-13.3l57.2,28.7l10.6-32.6
			c-15-2.3-32.4-4.5-61.9-5.5c-87-2.9-97.5,47.1-97.4,68.2c0.1,36.3,24.8,63.4,77.7,73.7c60.1,15.8,67.9,42.7,67.3,62.3
			c-0.6,21-13.1,43.1-37.3,47.6c-13.5,2.5-20.6,3.1-38.6,1.7l-57.6-29.3L720,637.1c0,0,45.3,4.6,72.5,4.6s47.5-2.8,68.9-17.7
			c23.4-16.3,30.9-41.3,30.9-59.5C892.1,540.5,883.9,500.7,820.3,485.9z M-0.2,419.1l55.1-27.2h35.6v225l-18.1,19.9H145l-18.1-19.9
			v-225h36l54.7,27.2v-36.3H-0.2V419.1z M448,382.8l-108.7,254h38.5l-14-32.8l28.7-67H496l34.2,79.8l-9.6,20h57.6L469.4,382.9
			L448,382.8z M396.3,528l47.8-111.7l48,111.7H396.3z M1525.5,382.8H1453l18.1,20v214l-18.1,20h72.5l-18.1-20v-214L1525.5,382.8z
			 M1283.5,382.8H1211l18.1,20v97.9h-126.9v-97.9l18.1-20h-72.5l18.1,20v214l-18.1,20h72.5l-18.1-20v-107h126.9v107l-18.1,20h72.5
			l-18.1-20v-214L1283.5,382.8z M1881.4,616.8l-49.6-97.2c10.4-4,16.2-8.7,24.4-14.8c13.1-9.8,23-30.2,21.8-53.9
			c-1.2-25.3-15.9-47.1-37.3-57.3c-21.4-10.2-45.3-10.7-72.5-10.7h-72.5l18.1,20v214l-18.1,20h72.5l-18.1-20V528h23.5
			c4.6,0,11.7,0.1,19.8-0.4l56.7,109.3h53.4L1881.4,616.8z M1786.4,518.8h-36.2v-127h31.7c35.7,0,59,31,59,63.6
			C1840.8,493,1818.9,518.8,1786.4,518.8z"/>
	</g>
</g>
<g fill="#FFFFFF">
	<g>
		<polygon points="3840.4,690.6 3810.9,500 3840.4,309.4 3847.3,310.5 3818,500 3847.3,689.5 		"/>
		<polygon points="3577.9,960.9 3572.2,956.7 3686.2,801.2 3686.6,800.9 3841.8,687.2 3845.9,692.9 3691.2,806.2 		"/>
		<polygon points="3574.5,962.3 3385,933 3195.5,962.3 3194.4,955.4 3385,926 3575.6,955.4 		"/>
		<polygon points="3192.1,960.9 3078.8,806.2 2924.1,692.9 2928.2,687.2 3083.8,801.2 3084.1,801.6 3197.8,956.7 		"/>
		<polygon points="2929.6,690.6 2922.7,689.5 2952,500 2922.7,310.5 2929.6,309.4 2959.1,500 		"/>
		<polygon points="2928.2,312.8 2924.1,307.1 3078.8,193.8 3192.1,39.1 3197.8,43.2 3083.8,198.8 		"/>
		<polygon points="3385,74 3194.4,44.6 3195.5,37.7 3385,67 3574.5,37.7 3575.6,44.6 		"/>
		<polygon points="3841.8,312.8 3686.2,198.8 3572.2,43.2 3577.9,39.1 3691.2,193.8 3845.9,307.1 		"/>
	</g>
	<path d="M3385,1000c-275.7,0-500-224.3-500-500c0-275.7,224.3-500,500-500c275.7,0,500,224.3,500,500
		C3885,775.7,3660.7,1000,3385,1000z M3385,7c-271.8,0-493,221.2-493,493c0,271.8,221.2,493,493,493c271.8,0,493-221.2,493-493
		C3878,228.2,3656.8,7,3385,7z"/>
	<rect x="3473.9" y="711" transform="matrix(0.7071 -0.7071 0.7071 0.7071 548.9618 2754.417)" width="251.3" height="7"/>
	<rect x="3645" y="278.1" transform="matrix(0.7071 -0.7071 0.7071 0.7071 832.1669 2677.9011)" width="7" height="112.8"/>
	<rect x="3547" y="180.1" transform="matrix(0.7071 -0.7071 0.7071 0.7071 872.6755 2579.8467)" width="7" height="112.8"/>
	<rect x="3044.8" y="282" transform="matrix(0.7071 -0.7071 0.7071 0.7071 726.7519 2325.4922)" width="251.3" height="7"/>
	<rect x="3167" y="588.9" transform="matrix(0.7071 -0.7071 0.7071 0.7071 423.287 2451.0166)" width="7" height="251.3"/>
	<rect x="3259.3" y="193.1" width="251.3" height="7"/>
	<rect x="3259.3" y="799.9" width="251.3" height="7"/>
	<rect x="2888.5" y="496.5" width="993" height="7"/>
	<rect x="3381.5" y="3.5" width="7" height="993"/>
	<rect x="3381.5" y="3.5" transform="matrix(0.7071 -0.7071 0.7071 0.7071 637.8445 2539.9382)" width="7" height="993"/>
	<rect x="3381.5" y="3.4" transform="matrix(0.3827 -0.9239 0.9239 0.3827 1627.7115 3436.0093)" width="7" height="993.2"/>
	<rect x="2888.4" y="496.5" transform="matrix(0.3828 -0.9238 0.9238 0.3828 1627.3339 3435.7769)" width="993.2" height="7"/>
	<rect x="3381.5" y="3.4" transform="matrix(0.9239 -0.3827 0.3827 0.9239 66.3182 1333.4026)" width="7" height="993.2"/>
	<rect x="2888.4" y="496.5" transform="matrix(0.9238 -0.3828 0.3828 0.9238 66.4437 1333.905)" width="993.3" height="7"/>
	<path d="M3577.6,307.4l10-33.9l33.9-10l-10,33.9L3577.6,307.4z M3593.2,279.2l-5.3,17.9l17.9-5.3l5.3-17.9L3593.2,279.2z"/>
	<rect x="3684.9" y="374.3" width="7" height="251.3"/>
	<rect x="3078.1" y="374.3" width="7" height="251.3"/>
	<rect x="3499.6" y="595.9" transform="matrix(0.7071 -0.7071 0.7071 0.7071 611.8573 2675.9958)" width="73.4" height="7"/>
	<rect x="3480.9" y="312" transform="matrix(0.7071 -0.7071 0.7071 0.7071 774.0624 2566.054)" width="7" height="73.4"/>
	<rect x="3197" y="397.1" transform="matrix(0.7071 -0.7071 0.7071 0.7071 663.8542 2403.9138)" width="73.4" height="7"/>
	<rect x="3282.1" y="614.6" transform="matrix(0.7072 -0.7071 0.7071 0.7072 501.6688 2513.8625)" width="7" height="73.4"/>
	<rect x="3311.6" y="319.2" width="73.4" height="7"/>
	<rect x="3385" y="673.8" width="73.4" height="7"/>
	<rect x="3558.8" y="426.6" width="7" height="73.4"/>
	<rect x="3204.2" y="500" width="7" height="73.4"/>
	<g>
		<rect x="2920.3" y="573.2" transform="matrix(0.7071 -0.7071 0.7071 0.7071 561.2979 2508.3523)" width="776.2" height="7"/>
		<rect x="3591.5" y="205.3" transform="matrix(0.7071 -0.7071 0.7071 0.7071 929.1627 2660.7095)" width="169.4" height="7"/>
	</g>
	<path d="M3381.8,501.3c-11.8-28.5-17.7-58.8-17.7-90c0-130.1,105.9-236,236-236c31.2,0,61.5,6,90,17.7l-2.7,6.5
		c-27.6-11.4-57-17.2-87.3-17.2c-126.3,0-229,102.7-229,229c0,30.3,5.8,59.6,17.2,87.3L3381.8,501.3z"/>
	<path d="M3170,824.7c-31.2,0-61.5-6-90-17.7l2.7-6.5c27.6,11.4,57,17.2,87.3,17.2c126.3,0,229-102.7,229-229
		c0-30.3-5.8-59.6-17.2-87.3l6.5-2.7c11.8,28.5,17.8,58.8,17.8,90C3406,718.8,3300.1,824.7,3170,824.7z"/>
	<path d="M3692,805l-6.5-2.7c11.4-27.6,17.2-57,17.2-87.3c0-126.3-102.7-229-229-229c-30.3,0-59.6,5.8-87.3,17.2l-2.7-6.5
		c28.5-11.8,58.8-17.7,90-17.7c130.1,0,236,105.9,236,236C3709.7,746.3,3703.7,776.5,3692,805z"/>
	<path d="M3296.4,521c-130.1,0-236-105.9-236-236c0-31.2,6-61.5,17.7-90l6.5,2.7c-11.4,27.6-17.2,57-17.2,87.3
		c0,126.3,102.7,229,229,229c30.3,0,59.6-5.8,87.3-17.2l2.7,6.5C3357.8,515,3327.6,521,3296.4,521z"/>
	<path d="M3388.2,501.3l-6.5-2.7c11.8-28.5,29-54.1,51.1-76.2c44.6-44.6,103.9-69.1,166.9-69.1c63,0,122.3,24.6,166.9,69.1
		c22.1,22.1,39.3,47.7,51.1,76.2l-6.5,2.7c-11.5-27.6-28.1-52.5-49.6-73.9c-43.3-43.3-100.8-67.1-161.9-67.1s-118.7,23.8-161.9,67.1
		C3416.4,448.8,3399.7,473.7,3388.2,501.3z"/>
	<path d="M3170.3,646.5c-60.5,0-120.9-23-166.9-69c-22.1-22.1-39.3-47.7-51.1-76.2l6.5-2.7c11.5,27.6,28.1,52.5,49.6,73.9
		c89.3,89.3,234.6,89.3,323.9,0c21.4-21.4,38.1-46.2,49.6-73.9l6.5,2.7c-11.9,28.5-29,54.1-51.1,76.2
		C3291.2,623.5,3230.7,646.5,3170.3,646.5z"/>
	<path d="M3386.4,932.7l-2.7-6.5c27.6-11.5,52.5-28.1,73.9-49.6c43.3-43.3,67.1-100.8,67.1-161.9c0-61.2-23.8-118.7-67.1-161.9
		c-21.4-21.4-46.3-38.1-73.9-49.6l2.7-6.5c28.5,11.9,54.1,29,76.2,51.1c44.6,44.6,69.1,103.9,69.1,166.9c0,63-24.6,122.3-69.1,166.9
		C3440.5,903.7,3414.9,920.9,3386.4,932.7z"/>
	<path d="M3383.7,503.2c-28.5-11.9-54.1-29-76.2-51.1c-92-92-92-241.8,0-333.8c22.1-22.1,47.7-39.3,76.2-51.1l2.7,6.5
		c-27.6,11.5-52.5,28.1-73.9,49.6c-89.3,89.3-89.3,234.6,0,323.9c21.4,21.4,46.3,38.1,73.9,49.6L3383.7,503.2z"/>
</g>
</svg>
